<svg width="1185" height="756" viewBox="0 0 1185 756" fill="none" xmlns="http://www.w3.org/2000/svg">
<path d="M1004.85 214.042C1008.93 214.218 1011.03 216.632 1013.82 218.13C1038.84 231.579 1063.76 245.11 1085.45 261.157C1112.03 280.725 1133.54 303.225 1149.06 327.696C1161.21 346.544 1170.51 366.186 1176.81 386.317C1181.97 403.224 1181.57 420.539 1183.18 437.65C1184.11 447.546 1185.49 457.415 1183.18 467.321C1179.11 484.654 1166.35 496.974 1141.07 502.551C1115.79 508.128 1090.64 514.575 1067 523.149C1037.69 533.813 1009.27 545.532 986.173 562.116C962.291 579.236 939.468 597.04 920.232 616.686C900.289 637.034 891.785 660.268 887.397 684.288C884.517 700.011 884.394 715.855 881.963 731.579C880.971 737.831 879.246 743.963 874.831 749.633C870.076 755.839 863.745 757.402 854.195 754.785C833.07 748.986 813.834 740.772 794.421 732.901C761.817 719.721 726.496 711.98 689.572 707.004C652.2 701.926 614.352 698.485 577.442 691.853C540.871 685.277 505.441 676.417 470.705 666.252C447.719 659.602 425.113 652.582 402.44 645.571C368.471 635.226 335.729 623.107 304.506 609.323C272.581 595.043 238.333 583.99 200.88 578.265C179.798 575.028 159.997 568.717 142.845 559.766C121.964 549.047 100.432 538.928 79.457 528.319C50.8199 513.807 30.619 494.745 16.0831 472.732C7.08985 459.089 0.786411 444.984 1.76453 429.834C2.66114 415.96 9.00533 403.012 17.0341 390.387C28.6085 372.193 44.8018 355.906 61.7151 339.886C78.1529 324.301 94.5771 308.689 107.551 291.578C112.946 284.717 116.81 277.348 119.017 269.713C119.383 268.316 119.696 267.003 121.326 266.013H121.231C122.847 266.679 121.733 267.576 121.557 268.335C119.302 277.723 114.167 286.426 107.592 294.75C93.1507 313.045 75.1778 329.758 57.4901 346.592C39.8025 363.425 23.8265 381.063 13.3118 400.681C5.70417 414.888 1.08528 429.436 5.16078 444.614C8.67494 457.213 15.0551 469.362 24.0711 480.621C36.2976 496.391 51.5263 510.635 71.8223 522.159C94.3598 534.951 119.152 545.661 142.546 557.667C159.418 566.324 177.337 573.104 198.135 576.165C232.505 581.271 264.308 590.76 294.249 603.154C315.659 612.006 336.363 621.652 358.764 629.385C402.141 644.396 446.713 657.585 491.517 670.469C548.642 686.896 608.511 696.043 669.344 702.841C694.777 705.763 719.852 709.977 744.36 715.448C769.792 720.998 792.56 730.404 815.41 739.598C828.098 744.712 840.922 749.661 854.711 753.305C863.881 755.728 869.302 754.165 873.499 748.116C874.206 747.089 874.749 746.026 875.32 744.962C879.123 737.794 880.305 730.321 880.917 722.764C882.275 706.116 883.335 689.402 887.573 672.911C892.437 653.876 900.588 635.609 915.531 618.905C927.337 605.633 942.334 594.016 956.843 582.168C969.953 571.485 983.021 560.664 998.862 551.803C1038.26 529.799 1082.56 514.02 1130.92 503.356C1141.79 500.96 1152.75 498.528 1161.58 493.302C1175.59 484.978 1180.36 473.814 1182.12 461.79C1183.48 452.855 1181.7 443.967 1180.9 435.078C1179.54 420.548 1179.73 405.944 1176.09 391.533C1171.87 374.783 1164.22 358.69 1155.71 342.781C1139.29 312.259 1115.26 284.881 1082.53 261.083C1060.13 244.796 1034.44 231.107 1009 217.196C1007.42 216.336 1004.77 215.901 1005.06 213.94L1004.85 214.042Z" fill="#2C2C2C"/>
<path d="M121.326 266.013C119.451 265.394 120.239 264.247 120.389 263.368C123.771 243.381 118.704 223.819 114.126 204.229C109.602 184.806 105.975 165.382 112.51 145.848C116.694 133.26 127.915 123.511 140.793 114.531C164.513 98.0023 194.318 91.1764 227.357 89.7336C269.47 87.8837 309.641 94.1639 349.228 103.45C392.251 113.559 433.36 126.98 476.492 136.877C506.814 143.832 538.032 147.976 569.699 150.75C590.592 152.6 611.459 154.126 632.556 152.942C654.048 151.731 675.335 149.474 696.65 147.347C723.603 144.664 750.42 141.048 777.766 140.641C811.484 140.141 843.558 145.21 874.437 154.246C906.674 163.681 935.569 176.768 963.514 191.058C976.175 197.532 988.51 204.34 1000.94 211.027C1002.48 211.85 1004.55 212.414 1004.85 214.005L1004.95 213.94C1002.31 214.329 1000.87 212.895 999.242 212.017C980.047 201.436 960.593 191.114 940.283 181.494C917.338 170.654 893.401 161.146 867.522 153.904C832.747 144.193 795.024 140.384 757.606 142.805C729.865 144.461 702.614 148.355 675.077 151.037C646.549 153.812 618.02 155.8 589.111 153.812C538.222 150.297 488.881 142.842 441.361 129.671C400.796 118.434 360.829 106.058 318.322 98.326C279.034 91.1857 239.529 87.9022 199.182 94.0344C155.261 100.712 108.298 128.682 111.015 167.787C112.122 181.437 114.262 195.039 117.427 208.539C121.054 224.928 125.103 241.29 123.513 257.976C123.255 260.704 123.513 263.525 121.231 265.976L121.326 266.013Z" fill="#2C2C2C"/>
<path d="M1.65601 483.202V482.323L2.44319 482.601L1.65601 483.202Z" fill="#2C2C2C"/>
<path d="M1.77741 483.96L0.990234 483.368L1.77741 483.082V483.96Z" fill="#2C2C2C"/>
<path d="M871.951 26.3228L870.878 26.2747V26.3325H872.127L871.951 26.3228Z" fill="#2C2C2C"/>
<path d="M873.078 24.7766C873.078 24.9338 873.159 25.091 873.186 25.2482C873.199 25.3343 873.199 25.4211 873.186 25.5072V25.609V24.7488L873.078 24.7766Z" fill="#2C2C2C"/>
<path d="M81.5079 293.233L80.7615 292.641L81.5079 292.354V293.233Z" fill="#2C2C2C"/>
<path d="M81.4133 293.992C81.4133 293.696 81.4133 293.4 81.4133 293.067L82.1598 293.344L81.4133 293.992Z" fill="#2C2C2C"/>
<path d="M873.146 25.5072L871.951 26.3211H872.087V25.4702L871.965 25.5442H873.228L873.146 25.5072Z" fill="#2C2C2C"/>
<path d="M613.944 129.338C577.265 128.645 539.73 124.473 502.751 117.592C466.805 110.905 431.96 102.164 397.454 92.6191C384.508 89.0489 370.8 86.7921 358.058 82.7318C346.932 79.1801 336.634 74.8792 330.494 67.1377C326.079 61.5882 324.652 55.5393 324.082 49.3886C323.674 45.0137 323.973 40.6019 323.891 36.2085C323.891 32.9436 325.956 30.4925 329.407 28.3375C341.905 20.5589 356.821 17.4142 373.463 17.2385C386.192 17.1368 398.921 17.664 411.637 16.8685C433.155 15.5089 454.09 11.874 475.31 9.33049C497.752 6.64823 520.33 5.05739 542.786 9.08077C563.503 12.7804 582.101 19.6896 599.911 27.5791C612.722 33.2766 625.505 38.9925 638.112 44.8935C654.142 52.3946 671.776 57.1671 690.645 60.1083C694.582 60.7668 698.374 61.7776 701.921 63.1143C721.008 70.1067 723.983 78.9026 718.562 94.2007C712.694 110.766 696.908 120.515 672.373 124.473C653.261 127.711 633.639 129.345 613.944 129.338ZM616.403 127.701C633.552 127.721 650.655 126.506 667.428 124.076C694.245 120.376 712.993 109.665 717.557 90.3808C720.926 76.1001 714.962 68.0904 695.386 62.7259C692.848 61.9774 690.203 61.4102 687.493 61.0333C665.893 58.4435 647.567 51.1274 629.744 42.9327C612.79 35.1449 595.999 27.2091 577.999 20.5127C553.546 11.4393 527.734 6.46326 499.45 8.64606C481.535 10.1209 463.742 12.2201 446.143 14.9355C422.573 18.4409 398.69 19.1716 374.645 18.7831C364.462 18.5662 354.348 19.9891 345.125 22.936C332.735 26.9594 323.226 32.2776 325.943 43.0992C326.5 45.3005 326.106 47.6127 326.255 49.8695C327.233 65.3064 338.672 75.5174 359.416 81.5294C372.675 85.3678 386.586 88.0038 399.832 91.648C424.583 98.4831 449.512 104.976 474.97 110.479C520.996 120.441 567.837 127.313 616.403 127.701Z" fill="#2C2C2C"/>
<path d="M870.701 25.4332L871.815 24.6748L872.154 24.9153C872.218 25.03 872.229 25.1553 872.185 25.2744C872.141 25.3934 872.045 25.5005 871.91 25.5812L872.032 25.5072C871.879 25.5793 871.705 25.6268 871.521 25.646C871.338 25.6652 871.15 25.6557 870.973 25.6182L870.701 25.4332Z" fill="#2C2C2C"/>
<path d="M198.855 617.296H197.633V617.372H198.991L198.855 617.296Z" fill="#2C2C2C"/>
<path d="M125.646 533.702C116.938 530.502 110.445 525.452 103.652 520.753C72.0536 499.091 49.8965 473.462 36.0806 444.484C28.4323 428.52 30.4293 412.649 37.9418 396.824C47.166 377.252 62.2589 359.827 79.1043 342.929C94.2243 327.788 109.399 312.665 122.576 296.683C136.039 280.266 140.454 262.637 138.688 244.037C137.221 228.739 132.982 213.672 130.89 198.429C129.138 185.619 128.839 172.874 132.588 160.175C136.066 148.391 145.82 139.105 157.707 130.642C181.508 113.698 211.422 106.65 245.072 105.669C278.328 104.68 310.28 109.258 341.634 116.287C376.004 123.973 408.581 134.554 441.524 144.553C467.105 152.322 492.794 159.879 520.317 163.865C554.361 168.786 588.731 171.486 623.563 170.339C640.694 169.747 657.634 167.907 674.643 166.362C707.247 163.384 739.688 158.658 772.808 158.612C811.199 158.565 847.009 165.659 880.971 177.535C924.973 192.907 964.383 212.932 1003.59 233.187C1026.68 245.1 1049.3 257.309 1069.16 271.766C1093.01 289.122 1112.43 309.066 1126.63 330.775C1136.83 346.499 1145.06 362.783 1151.22 379.454C1155.61 391.024 1157.02 402.9 1157.7 414.832C1158.21 423.859 1159.5 432.858 1160.41 441.876C1161.85 455.361 1158.89 468.162 1147.41 479.566C1140.62 486.235 1131.19 490.425 1120.24 493.116C1107.43 496.261 1094.43 499.045 1081.72 502.366C1049.74 510.819 1019.25 521.677 990.82 534.738C973.309 542.664 958.433 552.505 944.25 562.938C942.566 564.187 941.37 565.907 938.436 566.129L938.545 566.203C938.042 564.52 940.08 563.715 941.33 562.735C969.79 540.435 1005.61 525.035 1043.98 511.976C1067.45 503.984 1092 497.926 1116.87 492.377C1125.15 490.527 1132.93 487.909 1139.25 483.673C1155.55 472.741 1159.46 458.802 1158.27 444.17C1157.36 433.145 1156.98 422.101 1155.55 411.095C1154.36 401.975 1154.07 392.708 1150.71 383.847C1144.87 368.041 1137.44 352.527 1128.46 337.416C1106.73 301.215 1072.21 271.747 1027.38 247.699C1007.42 236.98 987.111 226.565 966.638 216.299C939.169 202.527 910.804 189.689 880.374 179.052C846.235 167.13 810.248 160.082 771.694 160.082C742.255 160.082 713.373 163.902 684.424 166.843C664.916 168.823 645.408 170.83 625.778 171.838C590.362 173.688 555.516 170.284 520.901 165.53C488.08 161.035 458.112 151.258 427.804 142.13C394.317 132.029 361.237 121.254 325.767 114.539C299.29 109.526 272.527 106.354 245.031 107.251C217.984 108.176 192.525 112.625 171.061 124.593C152.531 134.934 137.819 147.041 133.743 163.81C130.917 175.436 131.42 187.08 133.077 198.744C135.237 213.977 139.68 229.035 140.794 244.36C142.03 261.545 139.15 278.074 127.304 293.668C116.178 308.309 102.851 322.007 89.2658 335.566C70.5457 353.991 52.3826 372.702 41.501 394.151C33.7304 409.504 30.4293 425.015 36.9229 441.071C41.6912 452.883 48.8777 463.945 57.3004 474.729C73.1269 495.124 92.9066 513.372 118.759 528.448C121.34 529.947 124.709 531.047 126 533.471L125.646 533.702Z" fill="#2C2C2C"/>
<path d="M938.395 566.028C938.517 567.942 936.126 568.803 934.645 569.996C918.248 583.102 902.422 596.43 892.26 612.431C882.302 628.154 877.031 644.59 874.124 661.451C871.217 678.313 871.407 695.294 867.603 712.072C866.245 718.056 864.329 723.902 859.846 729.248C854.562 735.546 847.837 737.146 838.029 734.492C817.556 728.942 799.054 720.905 780.279 713.219C753.76 702.298 724.794 694.406 694.531 689.856C669.711 686.156 644.552 683.612 619.338 681.476C581.294 678.266 543.86 672.307 507.669 663.699C453.914 650.963 401.109 636.599 350.396 618.905C333.157 612.903 317.262 605.328 300.458 598.788C274.456 588.614 247.476 580.114 218.2 575.296C197.388 571.864 178.804 565.723 162.584 556.094C150.941 549.148 139.027 542.406 127.263 535.58C126.799 535.383 126.415 535.111 126.144 534.788C125.874 534.465 125.726 534.101 125.714 533.73L126.013 533.526C136.147 537.929 144.679 543.7 153.509 549.111C174.036 561.709 196.981 570.782 224.151 575.009C253.127 579.569 279.849 588.235 304.913 598.899C343.194 615.189 383.502 629.16 425.371 640.65C451.998 647.985 478.557 655.449 505.767 661.738C537.733 669.137 570.242 675.057 603.702 678.47C634.838 681.642 666.192 684.019 696.867 689.051C730.745 694.61 763.076 703.871 792.601 716.475C807.422 722.792 822.61 728.758 838.966 733.123C847.756 735.482 853.285 734.113 857.985 728.499C859.243 726.964 860.302 725.358 861.15 723.698C867.318 712.192 867.658 700.085 868.745 688.071C870.606 667.38 873.445 646.81 882.058 626.767C892.07 603.496 912.529 584.656 935.732 566.916C936.479 566.342 937.281 565.806 938.571 566.056L938.395 566.028Z" fill="#2C2C2C"/>
<path d="M506.624 20.2812C530.751 19.8464 551.984 25.9416 572.198 34.0532C588.066 40.4166 603.648 47.0945 619.27 53.7261C627.507 57.0737 636.457 59.5294 645.802 61.0052C649.743 61.626 653.616 62.4358 657.39 63.4285C678.406 69.3757 682.794 79.0318 675.403 95.8005C670.513 106.899 657.295 112.079 641.441 114.493C616.445 118.322 591.272 117.85 566.085 115.612C514.666 111.052 465.556 100.712 417.194 88.2809C407.684 85.8484 397.998 83.9616 388.543 81.4273C366.413 75.4986 357.909 67.0171 356.781 51.0161C355.817 37.2349 361.618 34.5064 381.533 29.2528C387.239 27.7452 393.474 27.6527 399.56 27.8285C423.144 28.4944 446.211 25.9786 469.265 23.0374C481.6 21.4096 493.99 20.1054 506.624 20.2812ZM589.995 115.649C609.815 116.26 623.957 115.418 637.909 113.494C653.301 111.367 667.307 107.279 672.768 96.189C680.688 80.0954 677.047 68.9687 651.535 63.6227C643.465 61.9394 635.042 61.0237 627.367 58.3969C610.508 52.6347 595.171 45.1984 579.113 38.5667C567.118 33.6092 554.864 28.9846 541.714 25.6642C520.073 20.1979 497.739 20.8269 475.691 23.6756C449.716 27.0238 423.782 29.817 397.237 29.3083C388.702 29.0265 380.224 30.3957 372.784 33.2577C367.269 35.496 360.3 37.3181 359.688 42.6641C359.055 47.6696 359.182 52.7063 360.069 57.694C360.643 61.5868 362.62 65.3229 365.824 68.5708C369.028 71.8187 373.36 74.4779 378.436 76.3125C383.345 78.2816 388.512 79.938 393.868 81.2608C425.222 88.5677 456.142 96.7162 488.121 102.774C523.292 109.452 558.817 114.826 589.967 115.649H589.995Z" fill="#2C2C2C"/>
<path d="M267.27 121.365C298.515 121.855 329.883 126.841 360.367 134.85C389.127 142.416 416.473 152.008 443.983 161.377C470.202 170.302 496.312 179.422 525.493 183.307C564.073 188.583 603.673 189.465 642.677 185.915C677.183 182.733 711.526 178.516 746.29 176.712C779.508 174.958 812.871 178.469 843.762 186.969C876.773 195.95 906.891 208.576 936.724 221.561C962.821 232.919 988.129 245.063 1012.8 257.79C1058.99 281.644 1092.95 311.778 1113.33 348.922C1122.13 365.062 1130.24 381.294 1132.55 398.572C1133.91 408.311 1134.43 418.097 1135.27 427.864C1135.72 432.867 1136.76 437.89 1136.46 442.875C1135.51 457.97 1128.57 471.205 1109.1 480.02C1102.07 483.031 1094.41 485.298 1086.38 486.744C1040.05 495.83 996.212 510.018 956.612 528.744C922.5 544.977 893.972 565.399 876.583 591.814C867.536 605.558 863.582 620.283 860.906 635.137C858.23 649.991 858.515 664.984 856.382 679.848C855.024 689.199 853.203 698.577 846.574 707.077C839.945 715.577 833.274 717.251 820.233 713.783C801.594 708.825 784.912 701.287 767.903 694.36C743.912 684.611 718.821 676.842 691.529 672.162C659.712 666.742 627.299 664.762 594.844 662.654C564.025 660.534 533.591 656.339 503.988 650.13C456.359 640.345 409.572 628.959 364.416 614.632C344.65 608.361 326.514 600.148 307.44 593.035C284.604 584.517 261.116 576.96 235.902 572.4C214.913 568.748 195.731 561.358 180.326 550.988C157.707 535.838 135.128 520.605 117.373 502.625C98.0142 483.044 81.0737 462.483 68.2903 440.433C56.4849 420.085 59.5415 400.153 71.0072 380.314C82.1062 360.992 99.1146 343.974 115.131 326.53C128.105 312.407 141.962 298.579 149.977 282.606C154.256 274.06 155.574 265.254 155.859 256.301C156.362 240.8 152.938 225.501 150.724 210.148C148.795 196.811 148.808 183.547 153.835 170.487C158.861 157.428 171.034 147.938 185.61 139.531C208.705 126.166 236.282 121.735 267.27 121.365ZM269.837 123.271C243.591 122.947 221.053 125.5 200.798 134.064C180.543 142.629 164.024 153.488 156.647 169.405C150.792 182.095 151.458 195.183 152.775 208.252C154.134 222.024 157.516 235.676 158.128 249.494C158.698 262.646 156.892 275.53 149.365 287.878C140.141 303.028 126.896 316.624 114.126 330.424C99.5493 346.147 84.5379 361.621 74.1997 378.945C62.3672 398.775 58.1015 418.716 70.0291 439.36C83.2609 462.252 100.84 483.562 121.204 503.753C137.832 520.235 158.712 534.331 179.47 548.426C195.092 559.035 212.916 566.804 234.38 570.624C262.759 575.684 289.019 584.165 314.396 593.997C332.314 600.943 349.785 608.435 368.546 614.345C406.706 626.369 446.197 636.053 486.137 644.867C515.766 651.425 545.911 656.716 576.79 659.666C613.619 663.153 651.018 663.643 687.29 669.997C703.863 672.897 720.108 676.606 735.897 681.096C751.384 685.49 765.526 691.668 779.885 697.514C793.47 703.063 807.055 708.613 821.809 712.654C832.079 715.429 838.722 713.903 844.061 707.327C847.34 703.249 849.685 698.855 851.016 694.295C855.975 677.591 855.377 660.563 857.523 643.693C860.933 616.815 869.057 591.111 893.537 568.941C911.198 552.958 931.575 538.817 955.458 527.32C978.987 516.017 1004.76 507.249 1030.9 499.045C1051.37 492.617 1072.87 488.177 1094.13 483.229C1118.03 477.68 1129.68 465.656 1133.53 449.174C1135.72 439.925 1133.26 430.888 1132.92 421.759C1132.39 407.673 1130.77 393.633 1125.7 379.981C1120.37 365.632 1113.23 351.624 1104.36 338.11C1089.61 315.309 1068.6 294.635 1042.47 277.195C1020.48 262.544 995.357 250.65 970.32 238.691C937.254 222.893 903.155 208.224 867.074 195.728C834.904 184.574 801.023 178.007 764.711 177.841C737.663 177.72 711.118 180.967 684.478 183.473C647.595 186.951 610.847 190.965 573.285 189.171C537.407 187.46 502.915 182.632 470.365 171.94C435.044 160.332 400.606 147.439 364.09 137.505C332.939 129.024 301.042 122.864 269.837 123.271Z" fill="#2C2C2C"/>
<path d="M585.946 105.577C559.768 105.42 534.405 101.646 509.096 97.5578C480.241 92.887 451.672 87.541 423.51 81.122C415.128 79.2075 406.909 76.9784 399.968 73.029C393.909 69.5976 391.137 65.1395 390.363 59.9507C390.295 59.4513 390.363 58.9426 390.241 58.4431C388.651 45.2168 393.515 40.361 415.074 38.9367C439.975 37.2903 464.945 35.9492 489.791 33.8681C511.283 32.0738 531.103 36.0787 549.837 42.8953C560.067 46.595 570.147 50.5721 580.05 54.688C591.326 59.3773 603.579 62.2815 616.064 65.01C637.555 69.6993 644.375 87.7444 628.875 98.3532C623.033 102.349 615.385 103.903 607.41 104.643C600.31 105.386 593.127 105.699 585.946 105.577ZM585.946 104.189C595.922 104.411 605.889 103.6 615.507 101.785C627.801 99.2781 633.887 94.0061 634.444 85.3674C635.042 76.1182 629.839 70.1895 617.816 67.0171C612.382 65.565 606.541 64.6863 601.039 63.2712C582.482 58.4986 566.424 50.5073 549.008 44.2642C528.468 36.8648 507.126 33.7109 483.936 35.8104C462.418 37.7528 440.94 40.2593 419.082 39.9448C412.759 39.836 406.528 40.9938 401.163 43.2745C397.957 44.6341 394.371 45.8828 393.012 48.639C388.556 58.2304 394.112 69.0981 406.42 74.3887C409.57 75.6902 412.906 76.7688 416.378 77.6074C447.474 85.5524 479.562 91.1759 511.799 96.4479C536.252 100.416 560.787 103.801 585.987 104.171L585.946 104.189Z" fill="#2C2C2C"/>
<path d="M92.4172 0.636475H93.7751L93.327 1.11743L92.4172 0.636475Z" fill="#2C2C2C"/>
<path d="M1000.38 492.109C999.025 494.652 995.275 495.004 992.232 495.966C967.602 503.948 942.701 511.689 920.87 522.992C897.585 535.089 876.298 548.491 863.161 566.87C855.757 577.349 851.682 588.439 848.802 599.852C845.324 613.781 844.726 627.831 844.278 641.889C843.857 654.45 843.422 666.982 837.635 679.108C835.896 682.826 833.301 686.332 829.946 689.495C824.199 694.906 816.361 696.552 807.082 694.323C789.571 690.105 773.935 683.39 758.475 676.62C721.292 660.32 678.944 650.28 634.933 647.328C613.795 645.83 592.575 645.839 571.437 644.664C539.322 642.888 508.036 638.255 477.062 632.492C448.996 627.267 421.255 621.319 394.004 614.336C368.559 607.862 344.853 598.936 321.229 589.909C297.165 580.628 271.694 573.151 245.262 567.609C224.884 563.383 209.384 554.531 195.867 543.802C169.58 522.918 148.238 499.85 130.333 475.229C120.606 461.855 109.548 448.961 100.555 435.31C88.6813 417.311 86.8065 399.173 95.5281 380.333C103.013 364.147 114.914 349.496 127.453 335.012C139.992 320.528 153.509 306.441 163.453 290.958C170.15 280.534 172.759 269.611 173.275 258.373C173.42 250.33 172.926 242.286 171.794 234.279C171.672 233.271 171.278 232.3 172.147 231.366H172.27C174.511 232.041 173.818 233.521 173.995 234.649C174.484 237.896 174.81 241.124 175 244.416C175.761 257.236 175.924 269.99 170.3 282.486C162.869 299.014 148.917 313.258 136.337 327.964C122.875 343.687 108.733 359.078 99.8074 376.383C90.4066 394.586 89.2111 412.52 100.188 430.704C108.773 444.91 120.198 458.099 130.183 471.788C147.45 495.466 167.393 517.951 192.022 538.447C207.319 551.164 224.409 562.125 248.413 566.879C276.154 572.373 302.047 580.827 327.206 590.39C344.731 597.077 362.174 603.829 380.772 609.073C413.145 618.221 446.523 625.324 480.309 631.549C516.69 638.255 553.491 643.184 591.326 644.044C612.138 644.516 632.923 645.182 653.558 647.559C688.662 651.61 721.483 659.481 751.886 672.264C768.311 679.182 784.586 686.35 802.409 691.631C816.714 695.867 824.743 693.999 831.807 684.593C838.436 675.778 840.162 666.242 841.113 656.549C842.784 639.263 842.471 621.911 845.419 604.652C850.486 575.61 868.255 551.451 900.982 532.102C920.87 520.5 942.857 510.677 966.407 502.875C977.587 499.092 988.564 494.976 1000.48 492.257L1000.38 492.109Z" fill="#2C2C2C"/>
<path d="M172.202 231.365C170.056 229.404 170.912 227.046 170.694 224.891C169.472 212.987 168.901 201.139 171.971 189.235C176.577 171.421 192.349 159.203 213.365 149.64C234.829 139.873 258.874 137.033 284.496 137.616C327.248 138.67 365.829 148.715 402.998 161.913C427.98 170.802 452.651 180.106 477.335 189.374C506.053 200.168 536.905 204.968 569.509 205.699C602.52 206.439 634.934 203.229 667.47 200.196C696.664 197.476 725.777 193.952 755.446 194.156C790.767 194.396 823.779 200.436 855.16 211.322C892.303 224.141 928.451 238.256 963.46 253.609C991.35 265.902 1018.47 278.86 1040.89 295.823C1062.77 312.342 1079.03 331.127 1090.9 351.752C1098.64 365.201 1105.41 378.88 1108.18 393.262C1109.54 400.717 1110.22 408.255 1110.71 415.775C1111.13 422.249 1112.87 428.724 1112.49 435.3C1111.28 455.824 1096.58 470.854 1066.66 476.995C1045.84 481.268 1025.16 485.772 1005.34 491.942C1003.75 492.441 1002.07 493.357 1000.36 492.043L1000.45 492.154C1019.19 485.72 1038.89 480.68 1059.22 477.125C1087.03 472.038 1105.67 461.17 1109.72 440.933C1111.44 432.303 1109.88 423.637 1109.12 415.035C1108.06 403.141 1106.54 391.255 1102.19 379.685C1098.92 371.324 1094.98 363.092 1090.38 355.026C1080.73 337.666 1068.13 321.406 1051.44 306.709C1031.06 288.738 1005.52 274.587 977.968 261.98C940.895 245.017 902.273 229.895 862.876 215.623C831.21 204.145 797.927 196.653 761.845 195.71C736.033 195.035 710.697 197.745 685.307 200.057C657.363 202.591 629.609 205.986 601.393 207.049C572.389 208.15 543.48 207.41 515.264 201.86C493.99 197.68 474.849 190.401 455.653 183.177C428.714 173.003 402.155 162.431 373.831 154.116C339.637 144.081 304.466 137.468 266.699 139.225C250.628 139.984 235.318 142.629 221.407 148.086C199.888 156.53 182.405 167.602 175.762 184.629C170.885 197.162 171.414 209.99 172.746 222.819C173.045 225.64 174.376 228.526 172.297 231.31L172.202 231.365Z" fill="#2C2C2C"/>
<path d="M567.022 94.3576C552.731 94.1634 537.339 91.5181 521.988 88.9468C501.054 85.4414 479.753 83.1939 458.791 79.8734C449.689 78.4306 440.56 76.886 432.504 73.288C423.456 69.2369 421.636 63.5024 423.687 56.8708C425.453 51.1086 433.061 49.4715 439.636 49.1847C460.367 48.2598 481.057 45.8828 501.91 47.2702C518.932 48.4078 533.862 53.8001 548.914 58.7484C557.703 61.6341 566.357 64.6216 575.758 66.5731C585.389 68.5802 592.644 72.5019 595.306 79.5867C597.969 86.6716 594.423 91.3146 584.072 93.4604C579.059 94.4778 573.856 94.2836 567.022 94.3576ZM569.739 92.776C574.351 92.9063 578.968 92.6265 583.474 91.9436C592.562 90.251 595.796 86.2091 593.35 79.9197C590.783 73.3528 583.841 69.8011 575.065 67.9513C563.531 65.5188 553.003 61.7081 542.243 58.1472C529.487 53.9296 516.527 49.8229 502.236 48.7408C481.165 47.0944 460.34 50.2391 439.364 50.7478C433.401 50.8958 427.138 52.5977 425.929 57.2223C424.57 62.633 424.964 68.0345 432.939 71.6417C438.381 74.01 444.343 75.7739 450.599 76.8675C472.444 81.0388 495.036 82.8424 517.03 86.5976C534.296 89.5573 551.658 92.5448 569.699 92.776H569.739Z" fill="#2C2C2C"/>
<path d="M874.179 522.307C874.382 523.694 872.684 524.304 871.462 524.97C850.174 537.05 839.211 552.949 834.32 571.151C830.055 587.051 829.864 603.107 829.932 619.182C829.932 628.478 830.802 637.81 828.737 647.031C826.903 655.282 823.493 663.208 815.152 669.72C808.359 675.047 800.711 676.509 790.835 674.076C774.411 670.043 759.589 663.846 745.108 657.428C708.157 641.01 668.285 630.605 623.957 628.487C603.484 627.506 583.012 628.413 562.566 627.886C527.245 626.961 492.536 623.169 458.193 617.656C436.302 614.262 414.693 610.073 393.46 605.105C373.083 600.212 353.887 593.516 334.855 586.607C311.923 578.283 288.53 570.606 263.819 564.945C240.466 559.599 224.327 548.297 211.272 534.617C193.517 516.045 179.837 496.076 167.298 475.672C160.451 464.444 151.471 453.844 142.981 443.171C133.172 430.795 123.5 418.337 120.09 404.241C116.544 389.637 121.448 375.8 129.165 362.287C137.927 346.785 150.099 332.449 162.298 318.132L162.176 318.03L163.453 318.881L163.331 318.816C162.163 321.591 159.717 323.995 157.693 326.502C146.73 340.006 135.522 353.436 128.39 368.179C122.562 380.203 119.044 392.43 122.576 405.175C125.972 417.43 133.947 428.446 142.478 439.286C151.689 451.005 161.592 462.52 169.132 474.766C181.684 495.17 195.351 515.148 213.079 533.72C225.781 547.02 241.444 558.045 264.254 563.41C276.29 566.197 288.11 569.398 299.67 573.001C320.251 579.476 340.004 587.069 360.286 593.941C384.426 602.127 410.021 607.75 436.104 612.366C484.602 620.93 533.549 627.238 583.976 626.415C605.576 626.054 627.081 626.563 648.478 628.996C684.981 633.148 717.652 643.443 748.436 656.984C762.021 662.977 775.905 668.739 791.202 672.596C801.513 675.195 809.677 673.04 815.967 666.815C825.069 657.807 827.256 647.549 827.691 637.079C828.533 616.389 826.658 595.625 831.101 575.027C835.407 555.039 846.615 537.457 869.628 524.018C870.986 523.259 872.019 521.974 874.287 522.418L874.179 522.307Z" fill="#2C2C2C"/>
<path d="M162.298 318.095C166.999 311.833 171.658 305.599 176.508 299.402C188.042 284.53 191.125 268.547 190.609 251.991C190.202 238.589 188.463 225.168 189.821 211.757C192.538 185.018 214.274 168.064 249.31 158.39C279.373 150.065 310.048 152.609 340.411 157.983C372.499 163.662 401.285 174.363 429.379 185.98C447.8 193.595 466.185 201.241 484.534 208.918C510.345 219.721 538.561 224.429 568.842 224.114C591.583 223.874 614.012 222.051 636.495 219.887C670.594 216.604 704.638 212.636 739.184 212.053C773.614 211.395 807.747 216.556 838.531 227.074C840.379 227.693 842.865 227.999 843.232 229.849V229.802C840.719 229.738 838.749 228.72 836.616 228.026C816.196 221.325 794.365 216.835 771.911 214.717C740.828 211.794 710.153 214.846 679.383 217.371C644.47 220.266 609.869 225.178 574.548 225.492C552.812 225.686 531.511 224.512 510.929 219.286C488.963 213.737 469.808 204.7 450.082 196.413C418.09 182.965 386.233 169.294 350.083 161.479C325.916 156.253 301.177 153.016 275.61 155.199C251.753 157.13 229.643 164.689 213.12 176.564C195.731 188.736 191.465 204.173 191.288 220.303C191.166 231.976 191.886 243.658 192.647 255.321C194.223 278.952 181.317 299.402 163.263 318.779L163.385 318.844L162.108 317.993L162.298 318.095Z" fill="#2C2C2C"/>
<path d="M845.405 229.867C855.553 232.207 864.601 236.111 874.083 239.394C903.481 249.568 932.648 260.029 960.837 271.711C993.128 285.103 1021.97 301.104 1043.45 322.581C1057.34 336.455 1067.32 351.633 1075.66 367.393C1085.7 386.372 1087.76 406.184 1088.47 425.949C1089.19 446.362 1074.35 462.659 1038.75 469.217C1003.14 475.775 969.64 485.634 936.479 496.308C918.071 502.227 900.37 508.813 884.34 517.424C881.107 519.162 878.702 521.798 874.178 522.316L874.287 522.39C873.92 521.142 875.319 520.605 876.42 519.976C883.875 515.681 891.69 511.685 899.827 508.008C916.129 500.784 933.694 495.3 951.314 489.907C972.629 483.433 994.093 477.088 1016.4 472.223C1029.52 469.356 1043.18 467.543 1055.55 463.15C1072.22 457.239 1082.52 447.944 1085.13 435.402C1088.26 420.243 1084.64 405.13 1081.77 390.128C1078.9 375.125 1070.48 361.104 1061.39 347.387C1048.71 328.231 1030.4 311.047 1007.58 296.896C985.263 283.022 959.533 272.395 933.273 262.489C905.886 252.167 877.887 242.622 850.174 232.707C848.312 232.041 845.894 231.689 845.527 229.849L845.405 229.867Z" fill="#2C2C2C"/>
<path d="M844.346 229.867L845.107 229.368C845.202 229.534 845.297 229.701 845.405 229.867L845.487 229.802H844.278L844.346 229.867Z" fill="#2C2C2C"/>
<path d="M843.205 229.857H844.346L844.278 229.793C844.196 229.968 844.156 230.283 844.006 230.311C843.422 230.422 843.205 230.181 843.273 229.802L843.205 229.857Z" fill="#2C2C2C"/>
<path d="M486.11 74.8883C477.456 74.99 468.762 75.2675 461.141 71.5678C457.758 69.9215 455.408 67.9791 455.951 65.0194C456.495 62.0597 459.755 60.6261 463.681 59.8029C473.014 57.8513 482.225 58.9612 491.503 60.1544C510.169 62.5499 528.685 65.1859 545.707 71.2534C548.997 72.3808 552.027 73.8297 554.7 75.5542C556.779 76.9416 558.029 78.6712 557.146 80.6597C556.263 82.6483 553.872 83.5455 550.924 83.8969C546.59 84.4242 542.542 83.675 538.466 82.861C528.767 80.9187 519.447 78.0977 509.653 76.3866C501.952 75.1186 494.022 74.614 486.11 74.8883ZM476.6 60.0896C472.919 60.3949 469.984 60.5706 467.091 60.8943C463.015 61.3475 458.641 61.921 458.111 65.3709C457.581 68.8208 461.616 70.3839 465.529 71.6141C471.37 73.4639 477.755 73.6119 483.95 73.3067C497.059 72.6685 509.503 74.5461 521.784 77.4041C530.098 79.3371 538.086 82.0934 547.093 82.3801C550 82.4726 553.478 82.7501 554.863 80.5303C556.249 78.3105 553.505 76.8306 551.236 75.5542C549.857 74.7209 548.35 73.9921 546.74 73.3807C524.61 65.2229 500.32 62.5591 476.6 60.0526V60.0896Z" fill="#2C2C2C"/>
<path d="M853.149 507.99C852.511 509.608 850.364 510.302 848.666 511.18C829.036 521.355 820.138 535.404 816.606 551.433C812.53 570.209 814.989 589.04 815.913 607.853C816.47 619.377 817.489 630.975 809.677 641.834C802.695 651.518 790.06 658.862 770.946 652.933C764.738 650.991 758.571 649.058 752.634 646.764C732.596 639.041 713.876 629.819 692.941 623.132C660.338 612.727 626.131 608.038 590.361 609.693C552.514 611.432 514.802 611.673 477.144 608.306C439.486 604.939 402.141 600.157 367.201 589.327C351.632 584.499 336.376 579.153 321.08 573.954C308.784 569.666 296.17 565.816 283.286 562.421C259.648 556.344 243.89 544.773 232.655 529.901C220.687 514.001 212.033 497.214 204.344 480.168C198.191 466.989 190.046 454.281 180.04 442.247C172.922 433.46 165.654 424.738 159.133 415.729C146.812 398.692 144.733 381.23 152.83 363.064C157.893 352.052 164.309 341.35 172.012 331.072C179.891 320.306 187.825 309.558 195.609 298.755C205.118 285.603 207.835 271.507 207.998 257.041C208.175 245.119 207.713 233.188 209.792 221.293C214.03 196.996 234.652 181.892 267.175 173.364C300.458 164.633 332.953 169.036 364.918 176.675C398.31 184.667 427.043 198.411 455.938 211.998C472.24 219.693 488.161 227.888 505.931 234.196C527.667 241.854 550.693 243.593 574.657 242.372C600.998 241.031 626.81 237.239 652.92 234.853C675.58 232.772 698.28 230.839 721.103 229.969C763.013 228.369 802.165 234.927 839.143 248.467C857.945 255.34 877.589 261.139 896.784 267.53C899.501 268.455 903.427 268.575 904.052 271.415L904.201 271.313C881.56 264.592 859.294 257.374 837.404 249.661C818.385 242.936 798.714 237.368 777.63 234.298C742.16 229.109 706.771 231.921 671.369 234.732C639.159 237.285 607.41 242.039 575.024 243.861C544.227 245.582 515.807 241.531 489.819 229.719C465.284 218.574 441.646 206.532 416.582 195.932C390.254 184.833 362.731 175.76 331.853 172.079C305.837 168.989 280.515 169.119 256.619 178.1C244.393 182.724 233.525 188.394 225.374 196.219C215.226 205.995 211.68 217.233 211.055 228.933C210.43 240.226 210.376 251.538 210.09 262.841C209.71 278.083 203.203 292.114 193.286 305.71C180.516 323.21 166.116 340.228 157.15 358.921C150.439 372.869 147.301 386.974 153.536 401.467C159.296 414.841 169.906 426.634 179.674 438.704C188.205 449.248 196.601 459.857 202.184 471.344C210.987 489.436 219.518 507.583 231.419 524.906C243.319 542.23 260.79 555.558 288.163 562.254C306.883 566.879 324.571 573.159 342.218 579.384C365.679 587.662 389.765 594.858 415.482 599.149C456.355 605.842 498.209 609.367 540.246 609.656C560.012 609.86 579.643 607.908 599.355 607.806C640.884 607.51 679.424 614.919 715.153 629.385C733.506 636.784 751.031 645.108 770.58 651.259C786.977 656.401 799.326 652.239 807.055 642.01C815.098 631.41 814.541 619.941 813.848 608.491C812.652 589.299 810.261 570.116 814.513 550.952C818.195 534.303 827.827 519.976 848.041 509.599C849.563 508.822 850.758 507.425 853.271 508.063L853.149 507.99Z" fill="#2C2C2C"/>
<path d="M905.302 271.331C906.28 269.851 907.462 271.017 908.359 271.331C934.904 280.081 961.164 289.127 984.435 301.715C1006.64 313.659 1024.87 328.674 1037.93 345.768C1047.44 358.125 1055.38 371 1059.34 384.754C1062.93 397.072 1064.67 409.608 1064.53 422.166C1064.26 439.416 1047.97 453.466 1021.4 458.932C992.301 464.916 963.46 471.335 935.393 479.28C908.223 486.984 880.551 494.134 857.048 506.731C855.823 507.258 854.51 507.684 853.136 507.999L853.231 508.073C852.498 506.315 854.848 506.019 856.152 505.298C878.486 493.376 904.542 486.272 930.407 478.975C959.863 470.709 989.962 463.552 1020.57 457.535C1048.57 451.986 1063.47 437.021 1062.39 417.348C1061.12 394.817 1055.43 373.044 1040.53 352.604C1029.36 337.268 1015.6 323.358 997.463 311.454C977.33 298.237 953.611 288.673 929.022 279.924C921.061 277.093 912.516 274.966 905.207 271.276L905.302 271.331Z" fill="#2C2C2C"/>
<path d="M903.997 271.379H905.355L905.273 271.303H904.201L903.997 271.379Z" fill="#2C2C2C"/>
<path d="M1005.93 339.895C1014.48 346.314 1019.51 354.157 1024.86 361.853C1035.42 376.984 1038.9 393.115 1040.49 409.652C1042.46 430.269 1025.22 444.531 999.024 449.858C970.088 455.741 941.22 461.771 912.909 468.939C886.867 475.534 861.001 482.249 836.833 492.062C809.392 503.161 797.736 519.458 796.785 540.352C796.16 554.226 798.809 567.924 800.507 581.677C801.947 593.424 804.406 605.216 800.072 616.898C794.204 632.705 774.261 638.893 752.525 632.104C734.864 626.554 718.97 619.016 702.559 612.079C665.961 596.587 626.578 588.512 583.215 591.037C564.319 592.147 545.626 594.626 526.607 595.163C500.972 595.893 475.405 596.152 449.756 594.894C410.808 592.98 374.876 584.72 340.533 572.558C326.174 567.443 311.42 562.855 296.803 558.101C276.779 551.58 263.859 540.648 255.396 527.052C246.933 513.455 242.3 499.369 237.858 485.135C233.144 470.105 228.131 455.195 217.263 441.58C208.609 430.796 199.603 420.122 190.664 409.458C170.408 385.355 173.913 361.177 189.998 336.935L189.876 336.852C191.75 337.98 190.501 339.137 189.876 340.284C188.368 343.243 186.724 346.175 185.352 349.163C178.111 364.96 175.489 380.823 184.564 396.74C190.65 407.423 199.372 417.181 207.808 427.041C219.885 441.164 230.563 455.611 235.657 471.843C240.806 488.251 245.656 504.743 254.01 520.614C262.881 537.466 277.254 550.878 302.251 558.286C317.439 562.79 332.341 567.785 347.081 573.011C378.164 584.11 410.93 591.074 445.912 593.183C487.107 595.532 528.562 594.663 569.467 590.593C589.024 588.639 608.898 588.673 628.44 590.695C657.552 593.821 683.568 602.136 708.306 612.69C724.608 619.682 740.502 627.313 758.747 632.113C770.063 635.082 781.461 633.334 789.408 627.266C795.797 622.32 799.504 616.033 799.909 609.452C800.779 600.546 799.814 591.648 798.456 582.759C795.915 566.037 792.777 549.268 795.739 532.425C797.953 519.847 803.401 508.091 818.507 499.6C830.044 492.925 842.836 487.327 856.545 482.952C896.856 470.598 938.47 460.318 981.038 452.198C989.029 450.761 996.878 448.981 1004.54 446.871C1023.37 441.451 1036.29 432.072 1037.84 417.921C1039.48 402.086 1036.16 386.194 1028.11 371.296C1022.2 360.197 1013.9 349.866 1004.78 339.849L1006.03 339.932L1005.93 339.895Z" fill="#2C2C2C"/>
<path d="M189.985 336.935C192.05 330.905 196.587 325.559 200.119 319.926C206.409 309.909 214.017 300.262 219.07 289.885C225.306 277.075 225.564 263.719 226.501 250.437C227.113 241.9 228.064 233.409 231.392 225.122C239.271 205.514 259.513 194.23 286.398 187.626C312.535 181.207 338.428 184.028 363.981 189.393C392.917 195.46 417.9 206.513 441.823 218.805C461.236 228.775 479.861 239.458 499.736 249.013C519.611 258.567 541.945 262.812 566.506 261.203C591.068 259.594 614.679 255.163 638.941 252.879C670.35 249.984 701.745 246.895 733.615 247.69C764.293 248.43 794.317 253.928 821.401 263.765C840.325 270.563 860.023 276.187 879.749 281.764C902.694 288.238 925.829 294.5 947.388 303.037C952.578 305.081 958.256 306.737 961.884 310.325L961.49 310.64C937.526 299.883 911.225 292.271 884.87 284.872C861.192 278.268 837.744 271.34 815.003 263.312C789.599 254.377 762.252 250.002 733.697 249.216C701.84 248.347 670.418 251.519 639.023 254.423C614.76 256.671 591.041 261.129 566.574 262.683C541.184 264.301 518.171 260.112 497.807 249.873C476.071 238.922 454.865 227.407 433.21 216.345C408.567 203.756 382.022 193.675 351.796 188.597C324.626 184.037 298.149 183.926 272.813 193.222C250.615 201.389 236.133 213.44 231.8 230.699C229.015 241.752 228.689 252.897 227.629 264.07C226.855 272.209 225.836 280.33 222.195 288.164C214.411 304.692 201.817 319.824 192.308 335.89C191.846 336.695 191.316 337.222 189.917 336.815L189.985 336.935Z" fill="#2C2C2C"/>
<path d="M966.217 311.953C973.988 314.45 979.693 318.761 985.698 322.71C992.491 327.205 999.392 331.746 1003.83 337.62L1003.6 337.731C996.186 333.596 990.833 328.139 984.054 323.579C978.199 319.63 971.04 316.642 966.041 312.092L966.217 311.953Z" fill="#2C2C2C"/>
<path d="M963.962 310.575C964.509 310.602 965.027 310.752 965.436 311.002C965.844 311.251 966.119 311.586 966.217 311.954L966.04 312.092C964.845 312.009 963.527 312.157 962.834 311.232V311.325L964.07 310.483L963.962 310.575Z" fill="#2C2C2C"/>
<path d="M1004.84 338.434L1005.92 339.137H1006.06L1004.8 339.275C1004.8 338.979 1004.89 338.683 1004.95 338.35L1004.84 338.434Z" fill="#2C2C2C"/>
<path d="M1005.93 339.137C1006.22 339.386 1007.03 339.636 1005.93 339.895L1006.03 339.951C1006.03 339.664 1006.03 339.377 1006.03 339.09L1005.93 339.137Z" fill="#2C2C2C"/>
<path d="M961.883 310.354C962.044 310.305 962.225 310.297 962.394 310.331C962.563 310.365 962.709 310.438 962.806 310.539V310.474V311.325V311.232L961.448 310.668L961.883 310.354Z" fill="#2C2C2C"/>
<path d="M962.807 310.538C963.241 309.826 963.594 310.335 963.961 310.538V310.446H962.685L962.807 310.538Z" fill="#2C2C2C"/>
<path d="M1003.83 337.62C1004.61 337.62 1004.81 337.98 1004.84 338.434L1004.95 338.35L1003.67 338.434C1003.57 338.328 1003.52 338.206 1003.52 338.082C1003.52 337.958 1003.57 337.836 1003.67 337.731L1003.83 337.62Z" fill="#2C2C2C"/>
<path d="M811.089 479.345C811.008 480.769 809.215 481.195 807.829 481.648C784.843 489.732 778.078 503.698 778.064 519.967C778.064 534.202 781.651 548.186 784.925 562.208C787.384 572.733 789.557 583.315 788.063 594.062C785.821 610.072 766.245 618.813 743.722 613.661C728.18 610.1 714.704 603.931 701.146 597.863C673.976 585.719 645.869 575.24 612.925 572.438C593.662 570.81 574.738 572.114 555.773 574.639C523.169 578.977 490.565 582.778 457.35 584.23C420.902 585.83 386.708 580.262 354.186 569.311C339.324 564.307 324.394 559.387 310.361 553.329C293.705 546.151 283.435 535.681 277.363 523.167C270.788 509.599 268.872 495.42 266.413 481.37C264.783 472.038 263.846 462.558 260.259 453.484C256.184 443.171 249.269 433.561 241.24 424.368C233.673 415.766 226.052 407.174 218.689 398.47C202.944 379.842 201.504 360.29 210.266 339.942C215.038 328.486 221.008 317.279 228.131 306.404C238.048 291.605 241.947 276.076 244.31 260.158C245.669 251.427 246.946 242.677 251.592 234.372C261.101 217.298 280.229 207.549 304.927 202.046C328.945 196.672 352.325 199.493 375.405 204.636C399.56 210.028 420.725 219.166 440.016 230.21C459.632 241.429 478.638 253.138 497.874 264.653C499.233 265.449 500.944 266.115 501.053 267.567L501.121 267.502C499.26 267.502 498.159 266.577 496.95 265.828C485.281 258.891 473.611 251.954 462.037 244.962C440.233 231.773 418.117 218.824 391.191 210.601C365.19 202.647 338.21 197.653 309.681 202.786C281.791 207.771 261.088 218.583 252.122 238.118C248.739 245.517 247.435 253.083 246.43 260.695C244.501 275.382 240.996 289.746 232.315 303.444C224.232 316.217 216.597 329.129 211.435 342.642C205.688 357.681 204.642 372.619 213.364 387.353C219.178 397.166 227.207 406.184 235.548 415.1C251.85 432.516 264.579 450.82 267.201 471.816C269.035 486.448 271.44 501.053 276.33 515.389C282.376 533.138 295.743 547.206 320.169 555.724C327.559 558.286 334.746 561.098 342.149 563.642C362.527 570.652 383.285 577.219 405.917 580.29C427.499 583.116 449.586 583.699 471.424 582.02C499.472 580.063 527.357 577.143 554.972 573.27C577.075 570.134 599.137 569.237 621.416 571.938C653.015 575.767 679.981 586.505 706.213 598.354C718.209 603.764 730.422 608.87 744.102 612.227C764.833 617.268 783.784 609.101 785.957 594.164C787.696 582.14 784.259 570.403 781.787 558.61C779.07 545.319 775.334 532.065 775.809 518.57C776.38 502.31 783.96 488.501 806.62 480.464C808.074 479.946 809.337 479.049 811.144 479.474L811.089 479.345Z" fill="#2C2C2C"/>
<path d="M508.743 271.368C512.22 270.582 514.177 272.598 516.513 273.551C533.902 280.663 552.5 281.801 571.994 279.211C597.29 275.854 622.055 270.665 647.744 268.64C682.4 265.911 717.028 263.377 751.887 267.52C769.778 269.638 787.208 273.07 803.143 278.962C827.922 288.035 854.182 294.565 880.577 300.836C903.21 306.2 925.788 311.62 946.138 320.527C972.126 331.913 990.969 347.35 1003.94 366.412C1012.24 378.603 1015.67 391.487 1016.67 404.704C1017.93 421.13 1004.45 433.654 979.422 440.285C969.763 442.847 959.683 444.29 949.793 446.223C914.037 453.206 878.621 460.883 843.694 469.577C834.765 471.888 826.085 474.623 817.72 477.763C815.695 478.503 813.807 479.751 811.144 479.344V479.4C811.144 478.253 812.503 478.04 813.562 477.615C823.662 473.712 834.196 470.353 845.066 467.57C873.01 460.448 901.661 454.797 929.986 448.452C945.568 444.956 961.829 443.106 977.221 439.203C992.042 435.504 1004.5 429.741 1010.83 419.364C1014.67 413.065 1014.72 406.498 1013.9 399.756C1010.29 369.585 990.004 345.63 955.675 326.946C932.2 314.164 904.052 307.967 876.203 301.308C854.997 296.22 833.736 291.272 813.712 284.224C801.254 279.85 788.675 275.678 775.253 272.848C744.007 266.262 712.151 265.911 679.927 267.752C646.88 269.759 614.138 273.651 582.047 279.387C568.218 281.801 554.076 283.022 539.934 281.052C528.536 279.461 517.641 276.918 508.946 271.257L508.743 271.368Z" fill="#2C2C2C"/>
<path d="M503.336 267.604C505.388 268.696 508.539 269.038 508.77 271.369L508.906 271.276C506.305 270.731 503.993 269.684 502.25 268.261V268.353L503.499 267.512L503.336 267.604Z" fill="#2C2C2C"/>
<path d="M1003.83 338.341C1003.83 338.637 1003.83 338.933 1003.83 339.266C1003.32 338.924 1002.48 338.656 1003.83 338.341Z" fill="#2C2C2C"/>
<path d="M1003.68 339.118H1004.95C1004.95 339.405 1004.95 339.692 1004.95 339.979L1003.68 339.118Z" fill="#2C2C2C"/>
<path d="M502.208 267.557C502.67 266.632 502.982 267.335 503.335 267.557L503.417 267.465H502.127L502.208 267.557Z" fill="#2C2C2C"/>
<path d="M501.067 267.567H502.208L502.126 267.512V268.363V268.27C501.42 268.27 500.918 268.094 501.04 267.512L501.067 267.567Z" fill="#2C2C2C"/>
<path d="M496.706 279.461C504.3 283.614 511.025 288.452 519.189 292.197C534.649 299.301 551.277 301.336 569.209 298.098C583.636 295.49 597.846 292.336 612.341 289.959C652.091 283.438 692.411 281.154 733.098 284.308C756.228 286.2 778.592 291.151 798.931 298.885C821.727 307.366 846.71 311.926 871.543 316.68C891.051 320.38 910.79 323.867 928.478 330.887C964.858 345.343 987.966 366.033 992.49 395.215C994.935 410.994 984.244 423.008 962.929 429.594C947.347 434.412 930.515 436.161 914.308 439.416C881.107 446.076 847.348 451.44 814.69 459.302C801.449 462.428 788.756 466.541 776.842 471.566C765.662 476.33 760.812 483.294 759.018 491.748C756.369 504.216 760.445 516.24 763.95 528.264C768.379 543.497 775.321 558.453 774.628 574.241C774.438 578.681 773.636 583.019 769.941 586.829C762.007 594.987 750.134 596.374 737.242 595.024C722.923 593.526 710.588 588.633 698.565 583.426C683.024 576.692 667.904 569.552 651.426 563.827C619.569 552.728 586.571 549.629 551.725 555.854C524.121 560.784 496.747 566.25 469.278 571.466C425.412 579.791 384.684 573.982 346.212 558.37C336.213 554.3 326.5 550.045 318.498 544.172C304.465 533.85 298.596 521.271 296.328 507.638C293.366 489.88 294.765 472.001 293.067 454.215C292.143 444.485 287.049 435.643 281.004 427.013C272.853 415.433 262.175 404.889 251.878 394.197C231.799 373.349 227.56 351.105 237.355 327.252C241.716 316.615 247.15 306.284 252.584 295.832C258.195 284.872 260.178 273.366 263.18 262.008C268.071 243.51 281.153 229.081 306.652 220.609C329.747 212.951 353.249 212.534 377.62 217.464C403.676 222.736 425.901 232.263 445.817 244.527C463.749 255.534 480.092 267.65 496.774 279.508C496.367 279.831 495.945 280.146 495.524 280.432C485.213 273.264 474.929 266.069 464.578 258.919C445.355 245.646 425.412 232.947 400.198 225.012C377.634 217.908 354.295 213.052 329.04 216.965C298.053 221.774 276.344 233.53 267.908 255.182C264.43 264.061 262.8 273.153 260.246 282.134C256.524 295.129 248.25 307.107 242.748 319.76C236.201 334.808 231.487 349.986 236.35 365.747C240.847 380.305 252.353 392.652 264.376 404.649C283.816 424.072 297.51 444.476 296.491 468.662C295.83 481.599 296.501 494.552 298.501 507.425C300.702 520.929 306.652 533.415 320.74 543.497C329.733 549.971 340.751 554.596 351.985 558.841C386.912 572.151 423.836 577.589 463.273 570.773C490.022 566.148 516.581 561.015 543.058 555.724C574.725 549.379 605.916 549.342 636.794 557.574C656.683 562.883 674.493 570.699 692.126 578.708C704.583 584.369 717.231 589.687 731.767 592.582C752.579 596.754 773.378 591.028 772.59 572.132C772.006 558.175 766.708 544.866 762.646 531.371C758.57 518.08 754.169 504.863 756.831 491.128C758.665 481.75 764.724 474.332 777.059 469.457C786.58 465.651 796.544 462.385 806.851 459.69C841.534 450.737 877.765 445.252 913.208 438.047C929.945 434.644 947.415 432.942 963.473 427.799C982.926 421.538 992.409 410.3 990.344 395.871C986.268 367.014 963.5 346.564 927.649 332.283C907.72 324.338 885.264 320.842 863.297 316.624C839.849 312.139 816.646 307.264 795.155 299.273C779.615 293.48 762.823 289.403 745.406 287.194C707.885 282.393 670.404 284.641 633.072 288.285C611.852 290.357 591.815 295.805 571.098 299.384C552.079 302.64 534.309 301.086 517.817 293.317C509.666 289.506 502.751 284.881 495.497 280.432L496.706 279.461Z" fill="#2C2C2C"/>
<path d="M501.258 547.372C491.857 551.784 481.342 554.818 471.371 558.471C445.41 567.831 417.995 569.968 389.929 564.492C350.627 556.834 319.857 534.96 319.531 503.448C319.368 487.836 321.528 472.334 323.376 456.842C325.699 437.418 316.407 420.585 301.11 404.871C289.142 392.56 275.693 380.906 267.012 367.208C258.861 354.426 256.945 341.144 259.187 327.437C261.184 315.246 267.025 303.731 272.364 292.142C275.951 284.363 278.192 276.363 281.303 268.501C291.818 241.956 330.209 227.416 366.033 229.016C389.277 230.062 409.871 236.24 428.836 245.11C448.507 254.313 463.994 266.448 478.883 278.943C481.695 281.311 485.852 283.115 486.722 286.444L486.83 286.38C484.507 286.5 483.828 285.131 482.673 284.225C474.522 277.75 466.562 271.165 458.152 264.801C437.775 249.429 413.675 237.812 383.802 232.429C343.373 225.113 294.141 237.979 282.308 271.637C277.404 285.51 271.074 299.181 265.572 312.971C256.864 334.744 258.575 355.869 275.679 375.865C283.653 385.198 292.782 393.984 301.49 402.993C318.526 420.687 328.66 439.361 325.482 461.087C323.349 475.414 320.795 489.806 321.827 504.299C322.411 512.623 324.272 520.818 329.503 528.412C346.09 552.459 385.704 567.554 425.44 565.723C445.138 564.798 462.635 560.071 479.698 553.93C486.654 551.423 493.107 548.177 500.999 547.012L501.258 547.372Z" fill="#2C2C2C"/>
<path d="M835.38 329.406C835.849 329.102 836.43 328.89 837.061 328.792C837.692 328.694 838.351 328.715 838.967 328.852C860.458 332.274 882.52 334.151 903.346 339.368C929.932 346.009 951.26 357.034 962.998 375.125C969.26 384.781 971.461 394.964 965.226 405.083C959.262 414.785 946.628 419.327 933.097 422.777C919.566 426.227 904.949 427.753 890.984 430.352C855.459 436.956 818.983 441.099 784.029 449.063C774.424 451.249 765.055 453.888 755.99 456.962C743.627 461.151 738.655 467.977 737.935 476.93C736.93 489.602 742.214 501.487 747.282 513.418C752.593 525.933 758.883 538.271 760.731 551.34C761.401 555.462 761.176 559.629 760.065 563.706C757.661 572.086 747.159 576.71 732.46 576.155C714.134 575.471 698.416 570.088 683.459 563.475C668.19 556.714 653.26 549.601 637.094 543.793C604.218 532 570.527 530.428 535.668 539.261C533.454 539.825 531.308 540.676 528.781 540.398L528.862 540.463C528.862 539.177 530.479 538.798 531.783 538.502C545.368 535.422 559.116 532.647 573.679 532.129C604.381 531.029 630.886 538.798 656.249 549.462C671.287 555.789 685.062 563.493 701.215 568.58C713.441 572.447 726.089 575.628 740.054 574.417C744.592 574.12 748.849 572.787 752.132 570.634C755.415 568.481 757.531 565.635 758.136 562.559C760.187 554.327 757.973 546.327 755.256 538.354C751.181 526.506 745.393 514.991 740.747 503.254C737.229 494.365 734.946 485.366 735.87 476.107C736.726 467.598 741.304 460.809 752.919 456.388C766.423 451.264 780.85 447.897 795.495 444.984C828.194 438.51 861.708 434.125 894.665 428.224C910.138 425.45 926.019 423.665 940.691 419.031C961.381 412.501 970.116 401.143 965.633 385.9C960.199 367.596 943.259 355.304 920.341 346.221C904.147 339.812 886.12 337.259 868.134 334.54C857.266 332.903 846.044 332.107 835.53 329.314L835.38 329.406Z" fill="#2C2C2C"/>
<path d="M486.653 286.417C491.992 288.193 494.478 291.874 498.282 294.648C507.207 301.123 515.548 308.004 526.634 313.017C538.004 318.16 550.041 319.889 563.422 317.79C574.073 316.125 584.112 313.267 594.192 310.557C625.356 302.168 658.041 300.799 690.944 300.66C714.147 300.559 736.902 302.51 758.951 307.616C768.341 309.822 777.432 312.579 786.121 315.857C800.092 320.97 814.972 324.837 830.394 327.363C832.106 327.649 835.244 327.02 835.325 329.397L835.448 329.323C834.352 329.421 833.242 329.421 832.147 329.323C816.823 326.549 801.675 323.358 787.683 318.16C774.68 313.163 760.799 309.309 746.371 306.691C706.784 299.893 667.021 301.289 627.231 305.627C607.804 307.745 590.021 313.526 571.532 317.855C553.573 322.081 537.176 320.629 521.961 312.768C511.093 307.172 502.344 300.253 493.677 293.243C491.055 291.124 487.02 289.543 486.64 286.38L486.653 286.417Z" fill="#2C2C2C"/>
<path d="M526.566 540.445C525.493 542.47 522.491 542.294 520.263 542.896C514.014 544.523 507.941 546.595 501.244 547.372L500.877 547.058C508.715 543.589 517.532 541.878 526.471 540.371L526.566 540.445Z" fill="#2C2C2C"/>
<path d="M527.68 540.426H526.566L526.485 540.362L527.395 539.918L527.612 540.454L527.68 540.426Z" fill="#2C2C2C"/>
<path d="M528.726 540.407L528.02 540.916C527.898 540.75 527.789 540.583 527.667 540.426V540.472H528.862L528.726 540.407Z" fill="#2C2C2C"/>
<path d="M581.966 321.887C582.238 319.926 584.887 320.213 586.571 319.778C609.176 314.007 632.896 312.832 656.683 312.175C679.778 311.528 702.75 312.814 725.07 317.327C735.152 319.343 744.882 322.1 754.087 325.55C772.876 332.616 793.484 336.001 814.228 339.035C826.645 340.885 839.211 342.152 851.41 344.584C878.852 350.134 901.294 360.086 913.901 378.325C919.075 385.49 920.66 393.612 918.411 401.448C916.116 409.153 908.902 414.267 899.094 417.939C885.848 422.915 871.027 424.59 856.668 427.29C823.317 433.58 789.191 437.834 756.315 445.326C747.569 447.288 739.054 449.7 730.844 452.54C720.22 456.24 715.37 462.095 714.664 470.031C713.808 479.862 717.068 489.195 720.764 498.564C725.545 510.653 731.781 522.51 733.968 535.024C734.38 537.267 734.575 539.526 734.552 541.786C734.362 554.623 722.19 561.144 703.47 558.943C685.511 556.834 670.336 550.859 655.664 544.005C643.478 538.124 630.642 532.892 617.273 528.356C589.084 519.107 560.216 518.339 530.873 525.581C517.559 528.883 503.961 531.658 491.381 536.227C489.879 536.677 488.325 537.042 486.735 537.318V537.383C486.124 535.459 488.759 535.533 490.131 535.024C505.781 529.253 522.735 525.84 539.608 522.205C548.597 520.321 557.931 519.306 567.335 519.19C588.378 518.783 607.682 522.89 625.995 529.641C641.59 535.367 655.773 542.59 670.92 548.824C683.228 553.865 696.256 557.639 710.928 557.574C723.671 557.574 730.341 553.255 731.754 544.718C732.305 540.335 732.004 535.922 730.857 531.593C728.385 520.494 722.883 509.968 718.631 499.221C714.718 489.389 711.254 479.52 712.613 469.18C713.604 461.558 718.047 455.593 728.358 451.782C736.979 448.674 745.967 446.062 755.229 443.976C785.428 436.974 816.891 433.228 847.525 427.327C862.564 424.432 878.105 422.703 892.6 418.513C910.953 413.139 919.24 403.714 916.618 390.479C913.589 375.199 900.411 364.489 882.656 355.924C865.919 347.896 846.465 344.936 826.957 342.226C807.83 339.571 788.702 337.037 770.349 332.283C759.983 329.591 750.596 325.559 740.462 322.608C720.859 316.929 700.25 314.377 679.112 313.859C651.222 313.183 623.495 314.145 596.352 319.223C591.598 320.148 587.142 321.813 582.034 321.776L581.966 321.887Z" fill="#2C2C2C"/>
<path d="M486.681 537.402C443.698 557.417 390.92 555.447 356.441 531.001C341.498 520.411 335.548 507.342 335.045 492.904C334.624 480.566 336.146 468.283 337.925 456.046C340.384 439.111 334.801 423.767 321.881 409.329C313.255 399.691 303.012 390.83 294.711 381.036C281.317 365.312 276.834 348.932 281.344 331.09C284.292 319.408 290.745 308.43 294.834 296.979C297.007 290.893 298.637 284.715 302.088 278.851C313.92 258.679 336.784 248.754 367.595 247.321C395.172 246.035 418.579 254.026 439.799 265.134C460.747 276.095 476.084 290.699 493.161 304.166C500.388 309.873 507.724 315.505 516.255 320.37C530.886 328.695 547.188 329.49 564.55 325.18C569.06 324.07 573.543 322.923 578.026 321.776C579.385 321.425 580.743 320.851 582.102 321.869L582.02 321.758C571.303 325.881 559.439 328.436 547.188 329.259C531.552 330.184 519.57 324.828 508.906 317.855C492.916 307.403 479.766 295.24 465.257 283.892C444.459 267.641 420.427 255.071 388.896 249.827C359.919 244.999 326.011 253.841 310.198 270.989C304.52 277.149 301.49 284.003 299.33 291.004C295.146 304.656 287.104 317.586 283.531 331.34C278.872 348.314 283.553 365.863 296.681 380.638C305.634 391.006 315.985 400.82 325.332 411.031C333.455 419.59 338.569 429.31 340.275 439.435C341.253 445.909 340.466 452.476 340.031 459.006C339.161 472.399 336.458 485.69 338.115 499.231C342.082 531.889 390.676 552.644 435.397 549.093C451.496 547.816 466.059 543.969 480.01 538.641C482.007 537.873 483.991 536.144 486.898 537.448L486.681 537.402Z" fill="#2C2C2C"/>
<path d="M350.532 477.615C350.464 468.56 351.782 459.552 352.923 450.552C355.07 433.663 348.386 418.68 334.23 404.852C325.943 396.741 317.657 388.601 311 379.722C301.71 367.747 298.65 353.983 302.319 340.672C306.585 324.736 313.608 309.225 320.659 293.853C329.272 275.022 361.074 262.767 390.676 265.689C416.487 268.242 437.707 276.788 456.02 289.09C471.805 299.68 484.684 312.009 499.913 322.932C503.2 325.291 506.624 327.557 510.196 329.749C524.61 338.527 540.79 338.517 557.744 333.976C601.094 322.377 645.598 321.027 690.877 327.196C700.282 328.469 709.35 330.702 717.775 333.819C736.794 340.857 757.294 344.612 778.35 347.461C792.044 349.311 805.928 350.754 819.01 354.324C840.149 360.096 857.048 369.123 866.109 383.801C868.05 387.067 869.237 390.518 869.628 394.031C871.217 405.851 863.596 414.175 846.995 418.809C829.539 423.674 810.982 426.005 792.927 429.492C768.311 434.237 743.138 437.622 719.188 443.958C713.717 445.452 708.406 447.205 703.293 449.202C695.034 452.347 691.977 457.526 691.379 463.594C690.388 473.536 693.825 483.017 697.696 492.469C701.677 502.246 706.377 511.893 707.518 522.15C708.062 527.052 708.374 532.028 704.122 536.338C697.072 543.488 686.462 542.739 676.137 541.499C662.077 539.807 650.149 534.729 638.452 529.42C627.566 524.283 616.224 519.609 604.49 515.426C579.643 506.954 554.32 505.825 527.83 511.624C507.561 516.055 488.556 522.252 469.577 528.661C433.686 540.778 390.363 534.405 365.924 513.696C353.385 503.124 350.138 490.731 350.532 477.615ZM353.086 472.473C352.516 482.554 352.42 492.691 358.439 502.126C375.882 529.485 423.959 539.853 462.717 528.948C484.616 522.779 505.17 514.538 528.156 509.96C550.313 505.539 571.913 505.159 593.717 510.644C608.919 514.473 622.422 520.291 635.735 526.368C648.301 532.121 660.963 537.716 676.069 540.001C697.085 543.173 707.763 536.625 705.385 522.039C703.701 511.754 699.096 501.95 695.238 491.998C691.434 482.194 687.222 472.38 689.26 461.993C690.537 455.464 694.979 450.497 703.619 447.26C710.879 444.527 718.486 442.245 726.347 440.443C756.071 433.673 786.814 429.399 816.918 423.554C829.484 421.112 842.458 419.521 853.679 414.555C862.89 410.476 867.875 404.787 867.631 397.249C867.088 380.444 853.068 369.345 833.533 360.845C818.318 354.213 800.929 351.919 783.445 349.653C763.543 347.054 743.491 344.464 725.383 337.962C703.866 330.091 679.921 325.794 655.501 325.42C631.864 325.078 608.307 325.42 585.158 329.333C573.339 331.358 562.132 334.586 550.53 337.037C532.299 340.894 517.723 336.88 504.735 328.371C491.422 319.649 480.282 309.641 468.219 300.143C450.884 286.445 431.241 275.17 405.402 269.278C374.944 262.304 334.855 270.61 323.525 293.206C315.279 309.632 307.753 326.373 303.976 343.66C300.716 358.56 306.15 372.212 317.561 384.985C325.712 394.095 335.67 402.429 342.843 411.937C350.288 421.806 356.129 431.915 355.273 443.486C354.594 453.161 353.67 462.807 353.113 472.473H353.086Z" fill="#2C2C2C"/>
<path d="M459.076 305.1C472.077 313.85 482.836 323.94 495.253 333.042C499.567 336.309 504.35 339.274 509.531 341.893C522.301 348.136 535.464 346.379 549.077 343.253C593.119 333.134 637.8 330.905 681.652 342.55C702.505 348.099 723.019 353.593 745.094 356.22C755.079 357.404 765.132 358.652 774.56 361.205C795.236 366.755 811.837 375.384 818.725 390.618C824.566 403.566 817.557 413.648 798.755 418.226C780.211 422.74 761.097 426.042 742.119 429.64C721.266 433.589 699.843 436.697 680.511 443.865C670.649 447.565 666.926 453.401 667.347 460.745C667.959 470.216 671.79 479.243 675.417 488.353C678.759 496.678 681.87 505.131 680.539 513.927C679.452 521.188 672.931 525.304 662.226 525.294C646.793 525.294 633.874 520.476 621.471 514.861C609.068 509.247 597.018 503.651 583.338 499.73C560.732 493.255 538.222 494.421 515.413 499.674C499.111 503.43 484.072 509.016 468.504 513.853C435.9 524.027 397.115 517.053 377.172 497.658C369.116 489.824 366.712 480.899 366.087 471.64C365.516 463.214 366.875 454.825 367.785 446.445C368.926 435.846 367.31 425.552 360.476 415.988C355.98 409.689 350.097 403.872 344.174 398.109C333.537 387.741 324.503 376.883 322.438 363.98C321.451 357.215 322.322 350.384 325.006 343.835C329.679 331.811 334.054 319.788 339.623 307.986C348.508 289.117 381.818 280.442 406.747 284.493C427.247 287.822 444.445 294.981 459.09 305.155L457.813 306.127C456.699 305.479 455.517 304.878 454.471 304.184C442.311 296.045 427.374 290.09 410.999 286.851C380.46 280.886 346.457 291.18 338.7 314.192C335.901 322.516 332.396 330.674 328.891 338.869C323.226 352.15 322.099 365.589 330.168 378.732C335.602 387.713 344.174 395.501 352.162 403.474C365.38 416.663 372.363 430.861 369.823 447.065C368.627 454.918 368.464 462.853 368.342 470.761C368.152 486.328 376.493 499.267 395.716 508.174C421.527 520.096 448.412 519.412 475.269 510.024C488.482 505.33 502.17 501.284 516.228 497.917C538.861 492.617 561.249 491.748 583.678 498.194C597.833 502.264 610.508 508.091 623.223 513.918C633.575 518.626 644.43 522.511 657.023 523.657C670.608 524.888 677.835 520.947 678.637 511.717C679.397 502.902 675.322 494.615 672.238 486.235C668.57 476.283 663.924 466.47 666.016 455.907C667.021 450.83 669.874 446.862 676.151 444.031C686.407 439.407 697.886 436.678 709.515 434.329C730.151 430.139 751.004 426.44 771.667 422.305C782.222 420.196 793.158 418.855 803.007 415.174C813.617 411.206 819.132 405.453 817.951 397.083C815.818 381.849 801.852 372.545 783.472 365.636C769.017 360.197 752.702 358.865 736.862 356.664C719.636 354.278 702.791 351.318 687.127 345.694C674.281 341.233 660.281 338.519 645.91 337.703C612.94 335.493 580.376 336.556 549.022 344.936C528.944 350.3 511.487 347.84 497.06 336.612C483.977 326.438 470.786 316.264 457.663 306.09L459.076 305.1Z" fill="#2C2C2C"/>
<path d="M446.673 313.489C448.941 312.397 450.001 313.868 451.319 314.571C461.521 320.037 469.876 326.743 478.203 333.439C484.647 338.763 491.48 343.863 498.676 348.719C509.544 355.878 522.124 356.877 536.048 353.584C569.63 345.639 603.81 344.547 638.452 349.792C642.636 350.295 646.705 351.169 650.556 352.391C671.26 359.864 693.906 362.722 716.552 365.654C731.332 367.578 744.822 371.481 755.663 378.751C764.819 384.892 771.15 392.107 771.204 401.245C771.204 406.563 767.713 410.633 761.573 413.722C756.919 416.005 751.708 417.708 746.181 418.753C726.931 422.555 707.844 426.745 688.553 430.491C678.297 432.48 668.301 435.045 658.666 438.158C647.513 441.756 643.587 447.564 644.117 455.436C644.62 462.89 647.975 469.966 650.271 477.19C652.567 484.413 655.528 491.35 653.857 498.749C652.499 505.011 647.5 507.998 638.18 508.183C627.312 508.378 617.599 505.705 608.497 501.922C599.395 498.139 590.184 493.94 580.811 490.203C559.781 481.805 537.923 480.362 514.326 485.255C496.502 488.954 480.853 495.725 463.45 499.813C434.202 506.685 402.046 498.426 387.958 480.288C381.03 471.381 381.478 461.623 381.872 451.93C382.076 446.658 382.158 441.377 382.687 436.114C383.924 424.146 376.302 414.203 367.527 404.51C361.047 397.369 353.018 390.886 348.385 382.978C341.593 371.324 342.788 359.633 347.57 347.877C350.287 341.107 353.208 334.364 355.599 327.529C362.894 306.728 393.433 298.209 419.91 303.333C428.49 304.928 436.617 307.488 443.956 310.908C445.314 311.556 447.719 311.833 446.849 313.618C436.783 309.678 426.662 305.923 415.156 304.082C395.539 300.928 366.942 307.551 359.579 324.43C355.124 334.605 350.79 344.899 347.475 355.295C343.671 367.226 346.117 378.797 355.626 389.397C360.231 394.53 364.878 399.663 369.863 404.639C379.672 414.416 385.989 424.849 384.943 437.011C384.263 444.781 383.937 452.562 383.964 460.356C383.964 470.835 387.809 480.454 399.057 488.196C418.742 501.737 448.602 504.595 474.549 495.253C485.573 491.207 497.047 487.755 508.865 484.931C532.041 479.493 554.66 479.104 576.898 487.003C587.766 490.841 597.697 495.577 608.022 499.952C616.376 503.485 625.098 506.426 635.192 506.787C646.386 507.185 651.602 504.012 652.05 496.289C652.444 489.556 650.38 483.053 647.853 476.616C645.217 469.938 642.758 463.233 642.242 456.268C641.78 449.96 642.799 443.809 651.208 439.749C660.37 435.516 670.549 432.408 681.285 430.565C702.559 426.587 723.399 421.759 744.591 417.533C749.746 416.543 754.661 415.047 759.182 413.093C762.289 411.829 764.829 410.01 766.527 407.834C768.225 405.657 769.016 403.206 768.813 400.745C768.778 395.188 766.22 389.774 761.491 385.244C751.982 376.448 739.035 371.37 723.888 368.503C705.806 365.071 686.882 364.045 669.154 359.568C659.998 357.256 651.493 353.815 642.12 351.956C619.025 347.387 595.483 347.942 571.872 349.255C559.238 349.958 547.31 352.548 535.437 355.249C519.787 358.81 506.324 356.516 494.994 348.525C478.679 336.991 464.958 323.783 446.673 313.489Z" fill="#2C2C2C"/>
<path d="M432.137 323.163C439.324 322.83 444.486 325.938 449.798 328.315C464.116 334.789 474.101 344.316 485.54 352.816C488.651 355.128 491.707 357.487 495.049 359.577C504.219 365.191 514.693 365.728 526.091 363.212C552.649 357.357 579.738 357.274 607.03 360.188C616.051 361.113 624.174 363.887 632.488 366.274C647.255 370.491 663.231 371.324 678.596 373.849C695.808 376.679 710.439 382.09 718.359 393.411C724.581 402.327 722.027 411.909 705.902 416.016C686.883 420.871 667.606 424.922 648.519 429.501C643.288 430.749 638.344 432.387 633.317 433.95C624.568 436.669 620.588 441.229 620.778 447.675C620.982 454.501 623.346 461.087 625.574 467.691C627.258 472.731 628.454 477.8 627.34 482.989C626.266 487.992 621.376 491.183 613.972 491.359C603.58 491.609 594.627 488.658 586.109 485.023C574.263 479.973 562.838 474.424 549.308 471.436C538.205 468.983 526.299 468.765 515.019 470.808C501.813 473.129 489.048 476.487 476.981 480.815C464.266 485.273 450.653 487.428 436.321 484.986C411.719 480.797 397.835 468.699 397.115 450.848C396.863 446.077 396.986 441.301 397.482 436.539C398.84 424.599 393.827 414.045 383.788 404.371C378.85 399.829 374.492 395.008 370.76 389.961C364.461 381.323 363.011 371.416 366.685 362.102C369.7 354.213 372.39 346.249 375.95 338.48C382.742 323.57 408.214 316.467 431.431 322.016C432.368 322.248 432.178 322.784 432.164 323.274C429.855 323.598 427.844 322.766 425.725 322.423C405.062 319.131 382.715 326.049 377.009 340.922C374.55 347.35 371.806 353.732 369.47 360.169C366.128 369.418 365.87 378.603 371.494 387.5C375.569 393.864 381.547 399.45 387.103 405.213C394.588 413.01 400.022 421.232 399.533 430.851C399.207 437.252 399.098 443.655 399.207 450.062C399.397 460.689 403.935 470.123 416.745 476.884C433.971 486.013 452.936 486.346 472.023 480.584C487.333 475.959 502.263 470.743 518.959 468.689C531.358 467.1 544.172 468.066 555.76 471.464C567.022 474.729 577.062 479.4 587.332 483.821C594.423 486.883 601.909 489.213 610.331 489.805C619.759 490.462 624.555 487.613 625.275 481.185C625.764 476.755 624.555 472.435 623.332 468.134C621.376 461.244 618.605 454.437 618.659 447.342C618.659 441.266 621.716 436.243 630.165 433.422C633.705 432.081 637.367 430.894 641.128 429.871C661.452 425.043 681.829 420.298 702.261 415.636C714.419 412.862 720.139 408.588 719.609 401.309C719.283 396.842 716.24 392.874 712.287 389.285C702.438 380.452 688.513 376.596 673.107 374.487C658.68 372.544 643.859 371.416 630.342 367.208C598.73 357.357 566.343 358.199 533.508 363.314C525.357 364.59 517.328 366.921 508.62 365.811C497.902 364.442 490.96 359.337 484.249 354.139C469.088 342.355 455.001 329.619 432.382 323.496C432.259 323.459 432.219 323.283 432.137 323.163Z" fill="#2C2C2C"/>
<path d="M386.206 377.863C387.663 368.921 390.809 360.145 395.566 351.752C401.285 341.791 416.691 336.861 432.246 338.804C447.8 340.746 459.416 346.758 469.699 354.416C475.133 358.498 480.567 362.602 486.001 366.727C494.152 373.025 503.743 375.051 516.242 373.007C544.132 368.382 572.049 367.901 599.287 375.523C611.35 378.899 624.364 379.463 636.903 381.414C649.442 383.366 660.161 387.038 667.565 394.437C676.83 403.686 673.637 411.224 658.544 415.442C643.044 419.78 627.421 423.887 611.988 428.317C599.504 431.896 596.08 436.345 597.887 445.539C598.947 450.885 600.047 456.222 601.12 461.568C601.479 463.694 601.333 465.846 600.686 467.94C599.653 471.779 596.203 473.841 590.538 474.211C583.27 474.692 576.64 473.286 570.473 470.844C563.599 468.162 556.806 465.388 550.095 462.52C531.076 454.344 511.487 455.741 491.802 461.05C484.629 462.983 477.905 465.739 470.664 467.524C440.872 474.822 414.436 462.798 412.683 441.33C412.491 439.953 412.468 438.567 412.615 437.187C414.993 422.897 408.282 410.577 395.743 399.265C389.466 393.549 386.233 385.826 386.206 377.863ZM388.774 378.917C387.796 388.388 394.642 395.899 402.06 403.141C410.686 411.539 415.808 420.52 414.735 430.944C414.454 434.457 414.513 437.979 414.911 441.488C416.514 458.349 433.672 469.05 457.188 468.014C467.648 467.561 476.41 464.009 485.648 461.198C504.667 455.417 524.026 452.115 544.254 458.636C550.515 460.767 556.589 463.145 562.444 465.757C570.092 469.013 577.646 472.509 587.142 472.778C594.708 472.99 598.009 471.122 598.96 465.989C599.803 461.188 598.404 456.481 596.882 451.828C591.774 436.225 595.985 430.675 617.721 424.839C620.289 424.155 622.897 423.544 625.465 422.841C637.08 419.65 648.749 416.552 660.269 413.213C670.064 410.383 672.754 405.434 668.42 398.84C662.891 390.34 652.635 385.688 639.892 383.616C621.308 380.573 602.289 378.714 584.438 373.728C581.151 372.898 577.715 372.373 574.222 372.165C554.056 370.401 533.582 371.248 513.878 374.663C505.211 376.226 497.236 375.402 490.023 371.324C482.809 367.245 477.253 362.306 471.099 357.663C460.434 349.634 448.969 342.503 432.68 340.283C418.566 338.36 403.079 342.938 398.229 351.216C393 360.063 389.811 369.407 388.774 378.917Z" fill="#2C2C2C"/>
<path d="M407.63 388.712C407.833 381.034 410.074 373.445 414.246 366.31C418.24 359.078 431.105 355.211 442.774 356.978C456.726 359.059 466.317 365.413 475.378 372.304C476.614 373.229 477.891 374.154 479.032 375.079C487.02 381.932 496.693 383.958 509.748 382.404C528.685 380.147 547.867 380.323 566.492 384.91C575.866 387.213 585.905 387.768 595.673 389.017C604.495 389.985 612.518 393.068 618.292 397.711C626.266 404.186 624.297 410.216 613.592 414.36C603.96 418.059 593.853 421.065 584.085 424.534C576.953 427.087 573.502 430.943 574.086 436.437C574.494 440.313 575.2 444.188 575.214 448.064C575.214 455.74 569.237 458.728 558.301 456.878C552.402 455.744 546.871 453.861 541.999 451.329C523.17 442.209 503.703 441.238 483.244 448.48C475.65 451.236 467.838 453.345 459.076 453.345C442.068 453.169 429.637 444.456 428.17 431.563C427.953 429.713 427.79 427.799 427.831 425.912C428.021 417.532 423.511 410.309 416.596 403.538C411.379 398.405 407.263 392.929 407.63 388.712ZM410.034 385.937C409.955 390.992 412.036 395.954 416.025 400.218C419.354 403.973 422.818 407.673 425.861 411.548C430.221 417.199 429.61 423.498 430.126 429.612C431.662 448.017 451.523 456.434 476.315 449.118C481.029 447.721 485.567 445.973 490.389 444.771C508.946 440.146 526.199 442.107 542.284 449.775C547.302 452.355 552.982 454.274 559.034 455.435C568.15 456.961 572.619 454.926 572.796 448.545C572.918 444.41 572.239 440.276 571.845 436.141C571.274 430.204 575.105 426.18 582.713 423.387C592.467 419.826 602.656 416.912 612.247 413.13C622.354 409.143 623.78 404.805 616.227 398.618C610.535 393.993 603.009 391.468 594.423 390.441C582.278 388.971 570.079 387.805 558.382 384.892C554.845 384.165 551.2 383.709 547.514 383.532C532.204 382.247 516.975 382.977 501.774 384.531C498.772 384.865 495.699 384.74 492.778 384.164C489.857 383.588 487.162 382.576 484.887 381.201C480.051 378.427 476.112 375.125 471.859 371.952C464.143 366.31 456.128 360.983 444.69 358.929C431.933 356.645 419.87 359.993 415.726 367.577C412.51 373.463 410.592 379.641 410.034 385.909V385.937Z" fill="#2C2C2C"/>
<path d="M539.227 440.323C533.677 440.056 528.359 438.7 523.917 436.42C509.775 429.733 495.212 428.521 479.874 434.413C476.363 435.81 472.472 436.707 468.436 437.049C456.291 437.974 445.926 432.285 443.901 422.768C442.619 415.925 439.126 409.361 433.672 403.548C426.608 396.149 428.319 388.426 433.006 380.869C435.723 376.531 443.249 374.312 450.599 375.024C461.671 376.097 468.979 381.193 475.853 386.391C482.021 391.016 488.963 393.282 498.214 392.865C517.125 392.005 535.627 394.623 554.144 396.648C561.072 397.407 567.579 399.34 571.804 403.641C574.752 406.628 574.901 409.431 571.152 412.168C568 414.453 565.066 416.95 561.058 418.541C553.315 421.612 549.62 426.098 549.756 432.174C549.693 433.3 549.401 434.415 548.886 435.486C547.378 439 544.498 440.397 539.227 440.323ZM449.077 376.346C442.652 376.106 436.348 378.649 434.433 382.312C430.588 389.711 429.461 397.111 436.498 403.937C441.932 409.246 444.418 415.165 445.885 421.427C446.352 423.411 447.117 425.357 448.167 427.235C449.71 430.094 452.705 432.482 456.609 433.968C460.514 435.454 465.07 435.94 469.455 435.338C474.413 434.727 478.828 433.136 483.352 431.721C494.315 428.29 505.333 427.799 516.255 431.841C521.282 433.691 526.158 435.763 531.294 437.391C541.836 440.822 546.944 438.797 547.745 430.861C548.288 425.533 550.91 421.177 557.893 418.236C562.145 416.451 565.473 413.889 569.033 411.521C572.986 408.894 572.415 406.471 569.44 403.89C565.365 400.311 559.51 398.702 553.138 398.026C533.494 395.899 513.891 393.402 493.826 394.197C487.278 394.475 482.021 392.708 477.524 389.573C473.639 386.9 469.754 384.217 465.678 381.674C461.104 378.728 455.261 376.86 449.009 376.346H449.077Z" fill="#2C2C2C"/>
<path d="M529.812 415.054C529.704 420.89 521.661 424.682 512.6 423.304C507.995 422.611 504.246 420.733 500.265 419.216C497.366 417.992 494.037 417.321 490.626 417.274C487.216 417.226 483.849 417.805 480.879 418.948C470.772 422.472 467.213 421.584 460.692 415.248C456.93 411.69 453.776 407.851 451.291 403.807C449.444 400.681 448.574 397.24 452.758 394.743C456.943 392.246 462.146 392.948 466.629 394.863C469.946 396.213 473.035 397.807 475.839 399.617C482.319 403.983 490.076 404.991 498.716 404.343C504.952 403.881 511.201 403.613 517.355 404.815C524.8 406.304 529.908 410.513 529.812 415.054ZM489.37 415.424C492.764 415.458 496.092 416.065 499.056 417.19C502.33 418.347 505.482 419.651 508.81 420.724C516.662 423.23 524.243 421.908 526.878 417.681C529.514 413.454 525.954 408.903 517.695 406.628C515.15 405.876 512.399 405.501 509.625 405.527C506.12 405.62 502.615 405.592 499.138 405.842C489.941 406.498 481.586 405.555 474.576 400.958C471.469 399 468.068 397.27 464.428 395.797C461.344 394.493 457.703 394.003 454.579 395.751C451.223 397.601 451.699 400.135 453.003 402.651C455.312 407.081 459.116 410.975 462.784 414.841C467.756 420.141 471.356 420.733 479.793 417.819C483.053 416.645 486.164 415.156 489.37 415.424Z" fill="#2C2C2C"/>
</svg>
