<svg width="420" height="213" viewBox="0 0 420 213" fill="none" xmlns="http://www.w3.org/2000/svg">
<path d="M97.1429 213C134.667 169.095 161.524 134.952 177.714 110.571C194 86.0952 202.143 67.8572 202.143 55.8572C202.143 51.8572 201.095 48.7619 199 46.5714C196.905 44.381 193.857 43.2857 189.857 43.2857C184.238 43.2857 179.762 46.6667 176.429 53.4286C173.095 60.1905 171.429 69.381 171.429 81H122.571C123.619 54.5238 130.286 34.4762 142.571 20.8572C154.952 7.14287 172.571 0.285727 195.429 0.285727C215.429 0.285727 230.952 4.85716 242 14C253.143 23.0476 258.714 35.7619 258.714 52.1429C258.714 65.381 253.762 80.7619 243.857 98.2857C234.048 115.714 217.905 137.476 195.429 163.571H237.571L229.714 213H97.1429Z" fill="url(#paint0_linear_99_2)"/>
<path d="M11.2891 92L0.255859 31.9531H16.2109L20.8457 64.3555C21.1191 66.2969 21.3105 67.9922 21.4199 69.4414C21.5566 70.8633 21.6523 72.2168 21.707 73.502C22.1992 71.5332 22.6777 69.7422 23.1426 68.1289C23.6074 66.4883 24.0176 65.1211 24.373 64.0273L35.0371 31.9531H49.8438L54.1914 64.3555C54.4648 66.2422 54.6562 67.9102 54.7656 69.3594C54.9023 70.8086 54.998 72.1895 55.0527 73.502C55.2715 72.3809 55.5859 71.1367 55.9961 69.7695C56.4336 68.375 57.0898 66.4609 57.9648 64.0273L70.0645 31.9531H86.7168L61.5742 92H45.127L41.0254 64.0684C40.752 62.1816 40.5469 60.5137 40.4102 59.0645C40.2734 57.5879 40.1914 56.1934 40.1641 54.8809C39.6992 56.6855 39.2344 58.3945 38.7695 60.0078C38.332 61.5938 37.9082 63.043 37.498 64.3555L28.3926 92H11.2891ZM75.7246 92L105.789 31.9531H125.887L138.643 92H122.359L119.939 80.6797H98.9395L93.1973 92H75.7246ZM104.969 67.3086H117.643L114.895 53.2812C114.621 51.8867 114.416 50.6426 114.279 49.5488C114.143 48.4551 114.061 47.4297 114.033 46.4727C113.459 48.1133 112.926 49.5625 112.434 50.8203C111.969 52.0508 111.6 52.9668 111.326 53.5684L104.969 67.3086ZM141.924 92L151.398 31.9531H167.559L160.299 77.6445H180.15L177.895 92H141.924ZM184.99 92L194.465 31.9531H210.543L206.482 57.0547L229.328 31.9531H250.082L220.51 61.6074L240.936 92H221.945L205.129 65.5449L200.945 92H184.99Z" fill="white"/>
<path d="M210.811 179.629H229.391L227.299 193H192.682L202.156 132.953H236.773L234.6 146.816H216.02L214.502 156.619H231.729L229.719 169.662H212.41L210.811 179.629ZM231.975 193L262.039 132.953H282.137L294.893 193H278.609L276.189 181.68H255.189L249.447 193H231.975ZM261.219 168.309H273.893L271.145 154.281C270.871 152.887 270.666 151.643 270.529 150.549C270.393 149.455 270.311 148.43 270.283 147.473C269.709 149.113 269.176 150.562 268.684 151.82C268.219 153.051 267.85 153.967 267.576 154.568L261.219 168.309ZM314.129 193H298.174L307.648 132.953H323.645C328.457 132.953 332.039 133.131 334.391 133.486C336.742 133.814 338.779 134.389 340.502 135.209C343.537 136.631 345.834 138.641 347.393 141.238C348.951 143.809 349.73 146.898 349.73 150.508C349.73 155.484 348.24 159.654 345.26 163.018C342.307 166.354 338.232 168.445 333.037 169.293L347.639 193H329.346L317.738 170.072L314.129 193ZM319.256 160.393H324.301C327.473 160.393 329.906 159.668 331.602 158.219C333.297 156.77 334.145 154.678 334.145 151.943C334.145 149.373 333.352 147.514 331.766 146.365C330.18 145.189 327.637 144.602 324.137 144.602H321.758L319.256 160.393ZM353.791 193L363.266 132.953H381.6L394.273 162.607C394.383 162.854 394.561 163.277 394.807 163.879C396.201 167.133 397.172 169.977 397.719 172.41V170.893C397.719 169.799 397.773 168.596 397.883 167.283C398.02 165.943 398.211 164.33 398.457 162.443L403.092 132.953H419.129L409.654 193H392.018L378.564 162.443C377.58 160.229 376.828 158.396 376.309 156.947C375.816 155.498 375.393 154.049 375.037 152.6V154.281C375.037 155.375 374.982 156.537 374.873 157.768C374.791 158.971 374.627 160.584 374.381 162.607L369.828 193H353.791Z" fill="white"/>
<defs>
<linearGradient id="paint0_linear_99_2" x1="132.5" y1="28" x2="224.5" y2="213" gradientUnits="userSpaceOnUse">
<stop offset="0.0001" stop-color="#FF8C3E"/>
<stop offset="1" stop-color="#C41616"/>
</linearGradient>
</defs>
</svg>
